<svg width="32" height="32" viewBox="0 0 32 32" fill="none" xmlns="http://www.w3.org/2000/svg">
<path d="M23.3333 15.333H8.66667C8.29848 15.333 8 15.6315 8 15.9997C8 16.3679 8.29848 16.6663 8.66667 16.6663H23.3333C23.7015 16.6663 24 16.3679 24 15.9997C24 15.6315 23.7015 15.333 23.3333 15.333Z" fill="black"/>
<path d="M23.3333 10.667H8.66667C8.29848 10.667 8 10.9655 8 11.3337C8 11.7018 8.29848 12.0003 8.66667 12.0003H23.3333C23.7015 12.0003 24 11.7018 24 11.3337C24 10.9655 23.7015 10.667 23.3333 10.667Z" fill="black"/>
<path d="M23.3333 20H8.66667C8.29848 20 8 20.2985 8 20.6667C8 21.0349 8.29848 21.3333 8.66667 21.3333H23.3333C23.7015 21.3333 24 21.0349 24 20.6667C24 20.2985 23.7015 20 23.3333 20Z" fill="black"/>
</svg>
