<svg width="32" height="32" viewBox="0 0 32 32" fill="none" xmlns="http://www.w3.org/2000/svg">
<path d="M19.8109 20.0901L25.9784 23.1478C26.0084 23.1634 26.0084 23.218 25.9709 23.2258L23.1007 24.1618C23.0932 24.1618 23.0782 24.1696 23.0782 24.1852L21.7294 26.9777C21.7144 27.0089 21.6619 27.0089 21.6544 26.9699L19.751 20.1369C19.7435 20.1057 19.7809 20.0745 19.8109 20.0901Z" fill="#9EDAF6"/>
<path d="M10.635 12.9394C10.635 12.0907 10.6727 11.2798 10.7669 10.5254C10.0321 10.6385 9.35377 10.7894 8.76967 10.9592C8.65662 11.6004 8.6001 12.2605 8.6001 12.9394C8.6001 13.6372 8.65662 14.3162 8.76967 14.9762C9.35377 15.146 10.0321 15.2968 10.7669 15.41C10.6915 14.6179 10.635 13.8069 10.635 12.9394Z" fill="#9EDAF6"/>
<path d="M16.3821 15.4862C16.4763 14.6941 16.5328 13.8454 16.5328 12.9401C16.5328 12.0537 16.4763 11.2051 16.4009 10.4318C15.6473 10.3564 14.8182 10.2998 13.9515 10.2998C13.0283 10.2998 12.1615 10.3564 11.3702 10.4507C11.276 11.2239 11.2383 12.0537 11.2383 12.9401C11.2383 13.8454 11.2948 14.6941 11.3702 15.4862C12.1615 15.5805 13.0283 15.637 13.9515 15.637C14.7994 15.6182 15.6284 15.5805 16.3821 15.4862Z" fill="#9EDAF6"/>
<path d="M15.3076 5.30176C15.7033 5.81096 16.0424 6.50877 16.3062 7.35744C16.8526 7.4706 17.3614 7.60262 17.8513 7.79121C17.2106 6.62192 16.3251 5.73553 15.3076 5.30176Z" fill="#9EDAF6"/>
<path d="M19.5662 11.1104C19.6604 11.695 19.6981 12.3174 19.6981 12.9397C19.6981 13.5809 19.6416 14.2222 19.5474 14.8257C20.7532 14.4108 21.5446 13.8638 21.7895 13.3169C21.7895 13.2038 21.7895 13.0717 21.7895 12.9586C21.7895 12.8454 21.7895 12.7511 21.7895 12.638C21.5634 12.0722 20.7721 11.5253 19.5662 11.1104Z" fill="#9EDAF6"/>
<path d="M6 12.959C6 13.6002 6.79136 14.2603 8.16681 14.7695C8.0726 14.1848 8.03492 13.5625 8.03492 12.9401C8.03492 12.3366 8.0726 11.7331 8.16681 11.1484C6.79136 11.6576 6 12.3177 6 12.959Z" fill="#9EDAF6"/>
<path d="M18.8315 10.2995C18.6808 9.67715 18.4924 9.07365 18.2474 8.52672C17.701 8.30041 17.1169 8.09295 16.4951 7.96094C16.6459 8.56444 16.7777 9.20567 16.8908 9.90347C17.5879 10.0166 18.2474 10.1486 18.8315 10.2995Z" fill="#9EDAF6"/>
<path d="M18.9442 15.0143C19.0573 14.3542 19.1326 13.6564 19.1326 12.9397C19.1326 12.2419 19.0761 11.563 18.9631 10.9217C18.379 10.752 17.7007 10.62 16.9658 10.5068C17.0412 11.2801 17.0977 12.091 17.0977 12.9397C17.0977 13.8072 17.0412 14.6371 16.9658 15.4292C17.7007 15.316 18.3601 15.1651 18.9442 15.0143Z" fill="#9EDAF6"/>
<path d="M17.8327 18.1455C17.3428 18.3152 16.8341 18.4661 16.2877 18.5604C16.0051 19.3902 15.6847 20.0692 15.2891 20.5595C16.3065 20.1446 17.1732 19.2771 17.8327 18.1455Z" fill="#9EDAF6"/>
<path d="M16.8908 15.9954C16.7966 16.6932 16.6647 17.3532 16.4951 17.9567C17.1169 17.8247 17.701 17.6361 18.2286 17.391C18.4735 16.844 18.6808 16.2405 18.8315 15.6182C18.2286 15.769 17.5879 15.9011 16.8908 15.9954Z" fill="#9EDAF6"/>
<path d="M12.4253 20.5783C12.0484 20.088 11.7093 19.3902 11.4267 18.5415C10.8803 18.4283 10.3527 18.2775 9.86279 18.0889C10.5223 19.2582 11.4078 20.1446 12.4253 20.5783Z" fill="#9EDAF6"/>
<path d="M10.8424 9.94155C10.9366 9.24375 11.0685 8.60253 11.2192 7.99902C10.5974 8.1499 9.99448 8.35735 9.44807 8.60253C9.22197 9.13059 9.03355 9.71524 8.88281 10.3376C9.48575 10.1867 10.1452 10.0547 10.8424 9.94155Z" fill="#9EDAF6"/>
<path d="M9.82471 7.84779C10.3146 7.65919 10.8422 7.50832 11.4074 7.3763C11.6901 6.50877 12.0292 5.81096 12.4249 5.30176C11.3886 5.75439 10.503 6.64078 9.82471 7.84779Z" fill="#9EDAF6"/>
<path d="M8.90137 15.5801C9.0521 16.2024 9.24052 16.7871 9.48546 17.3152C10.0319 17.5603 10.616 17.7678 11.2378 17.9187C11.087 17.334 10.9551 16.6739 10.8421 15.9761C10.1449 15.8818 9.48546 15.7498 8.90137 15.5801Z" fill="#9EDAF6"/>
<path d="M10.9933 20.3328C10.2208 19.6916 9.56134 18.8052 9.05261 17.7302C7.95978 17.2021 7.05537 16.5043 6.43359 15.6934C7.22495 17.8245 8.88303 19.5218 10.9933 20.3328Z" fill="#9EDAF6"/>
<path d="M6.39551 10.2621C7.01729 9.43224 7.9217 8.73443 9.01453 8.18751C9.52326 7.09366 10.2016 6.1884 10.9929 5.52832C8.86379 6.377 7.16802 8.09321 6.39551 10.2621Z" fill="#9EDAF6"/>
<path d="M16.7397 5.54688C17.5123 6.1881 18.1717 7.07449 18.6616 8.13063C19.6979 8.60211 20.5646 9.24334 21.2053 9.97886C20.3951 7.94203 18.7747 6.33897 16.7397 5.54688Z" fill="#9EDAF6"/>
<path d="M12.0293 7.282C12.6511 7.1877 13.2729 7.13112 13.9323 7.13112C14.5353 7.13112 15.1382 7.16884 15.7035 7.26314C15.1947 5.82982 14.5164 5 13.857 5C13.2163 5 12.538 5.82982 12.0293 7.282Z" fill="#9EDAF6"/>
<path d="M15.6848 18.6732C15.1196 18.7486 14.5355 18.8052 13.9325 18.8052C13.2919 18.8052 12.6513 18.7486 12.0483 18.6543C12.5571 20.0688 13.2165 20.8797 13.876 20.8797C14.5166 20.8797 15.1761 20.0688 15.6848 18.6732Z" fill="#9EDAF6"/>
<path d="M19.001 8.9043C19.1894 9.39464 19.3401 9.92271 19.4532 10.4885C20.3199 10.7714 21.0547 11.1109 21.5635 11.5069C21.1113 10.4885 20.2069 9.58324 19.001 8.9043Z" fill="#9EDAF6"/>
<path d="M21.1864 15.9951C20.5458 16.7118 19.6602 17.3341 18.6428 17.8056C18.134 18.8429 17.4934 19.7104 16.7397 20.3328C18.737 19.5596 20.3574 17.9754 21.1864 15.9951Z" fill="#9EDAF6"/>
<path d="M6.30176 11.5064C6.79165 11.1292 7.45111 10.7897 8.26131 10.5257C8.37436 9.9976 8.50625 9.48839 8.69467 8.99805C7.56416 9.65813 6.73512 10.5257 6.30176 11.5064Z" fill="#9EDAF6"/>
<path d="M11.8408 7.88519C11.6712 8.46983 11.5205 9.14877 11.4263 9.88429C12.2176 9.78999 13.0655 9.75228 13.9511 9.75228C14.7801 9.75228 15.5715 9.78999 16.3252 9.88429C16.2121 9.14877 16.0802 8.46983 15.9106 7.88519C15.2888 7.77203 14.6294 7.71545 13.9511 7.71545C13.1974 7.69659 12.5003 7.75317 11.8408 7.88519Z" fill="#9EDAF6"/>
<path d="M15.8729 18.0694C16.0425 17.4848 16.1933 16.8058 16.3063 16.0703C15.5526 16.1458 14.7613 16.2023 13.9322 16.2023C13.0467 16.2023 12.2176 16.1458 11.4263 16.0703C11.5393 16.8058 11.6712 17.4848 11.8596 18.0694C12.5191 18.1826 13.2162 18.258 13.9511 18.258C14.6105 18.2392 15.2512 18.1826 15.8729 18.0694Z" fill="#9EDAF6"/>
<path d="M21.5635 14.4111C21.0547 14.8072 20.3199 15.1655 19.4532 15.4484C19.3401 15.9953 19.1894 16.5423 19.001 17.0326C20.2069 16.3537 21.1113 15.4484 21.5635 14.4111Z" fill="#9EDAF6"/>
<path d="M8.71351 16.9188C8.54394 16.4284 8.3932 15.9192 8.28015 15.3723C7.46995 15.0894 6.79165 14.7688 6.30176 14.3916C6.73512 15.3912 7.583 16.2587 8.71351 16.9188Z" fill="#9EDAF6"/>
</svg>
