<svg width="274" height="271" viewBox="0 0 274 271" fill="none" xmlns="http://www.w3.org/2000/svg">
<g clip-path="url(#clip0)">
<path d="M189.094 117.404H238.44L250.632 52.2843C252.55 42.0548 244.856 32.566 234.631 32.566H192.915C182.69 32.566 174.996 42.0548 176.914 52.2843L189.094 117.404Z" fill="black"/>
<path d="M238.227 117.403L230.809 190.645L231.786 263.899H226.21L217.514 190.645L213.892 135.334H209.82L202.615 190.645L201.75 263.899H196.174L189.307 190.645V117.403H238.227Z" fill="black"/>
<path d="M211.499 16.2573H217.777L222.463 32.5659H206.474L211.499 16.2573Z" fill="#FFC59E"/>
<path d="M210.283 24.418H215.484C217.777 24.418 219.644 22.5151 219.644 20.1781V4.6741H202.865V16.8448C202.852 21.0209 206.173 24.418 210.283 24.418Z" fill="#FFC59E"/>
<path d="M200.722 -3.05176e-05L215.672 2.04333C218.817 2.47754 220.408 4.20162 220.408 6.87075V12.988C220.408 14.5206 219.193 15.7593 217.689 15.7593H214.92V9.53989C214.92 8.07122 213.754 6.87075 212.301 6.87075H202.903L200.722 -3.05176e-05Z" fill="black"/>
<path d="M214.068 12.209C214.068 13.0902 214.769 13.8181 215.646 13.8181C216.511 13.8181 217.225 13.1029 217.225 12.209C217.225 11.3278 216.524 10.6126 215.646 10.6126C214.782 10.6126 214.068 11.3278 214.068 12.209Z" fill="#FFC59E"/>
<path d="M215.785 270.234H220.997L226.21 268.522V263.899L220.997 266.466L215.785 267.718V270.234Z" fill="black"/>
<path d="M227.839 270.234H231.786V263.899H226.21V268.522L227.839 270.234Z" fill="black"/>
<path d="M185.748 270.234H190.961L196.174 268.522V263.899L190.961 266.466L185.748 267.718V270.234Z" fill="black"/>
<path d="M197.803 270.234H201.75V263.899H196.174V268.522L197.803 270.234Z" fill="black"/>
<path d="M242.676 138.527L240.332 142.396C239.505 143.75 239.28 145.397 239.693 146.943L241.009 151.757C241.097 152.064 241.523 152.077 241.623 151.77L243.315 145.985C243.49 145.385 243.979 144.938 244.593 144.823C245.959 144.567 247.099 143.648 247.65 142.345L248.552 140.251L242.676 138.527Z" fill="#FFC59E"/>
<path d="M212.1 38.3129H216.824C219.932 38.3129 222.451 35.7459 222.451 32.5787H206.461C206.474 35.7331 208.993 38.3129 212.1 38.3129Z" fill="#FFC59E"/>
<path d="M248.465 140.991L260.971 97.1487C261.397 95.6418 261.434 94.0582 261.083 92.5256L250.695 46.4352L236.51 45.5029L247.889 94.9777L241.899 139.561L248.465 140.991Z" fill="black"/>
<path d="M214.068 46.4097L209.344 38.3129L218.917 38.3895L214.068 46.4097Z" fill="#FF989B"/>
<path d="M214.068 46.4097L208.955 110.469L213.291 115.092L217.689 110.226L214.068 46.4097Z" fill="#FF989B"/>
<path d="M206.261 32.0296L214.256 38.2363L209.431 44.5835L202.076 32.8086L206.261 32.0296Z" fill="white"/>
<path d="M222.288 32.1955L214.206 38.1723L219.105 44.7494L226.473 32.9745L222.288 32.1955Z" fill="white"/>
<path d="M35.81 131.843H66.147L73.6905 67.1072C74.4675 60.4536 69.3674 54.6045 62.7888 54.6045H39.1557C32.577 54.6045 27.477 60.4536 28.2539 67.1072L35.81 131.843Z" fill="#9EDAF6"/>
<path d="M26.3304 138.25L27.1324 195.758L28.0346 267.697L32.8089 268.885L39.7885 205.336L46.104 154.061H49.6878L52.7203 202.846L53.4721 267.429H58.3968L64.4491 202.846L69.4614 138.25H21.3181H26.3304Z" fill="#FFC59E"/>
<path d="M67.5817 273.022H62.9954L56.304 270.813L58.3966 267.429L67.5817 271.937V273.022Z" fill="black"/>
<path d="M56.9682 273.022H53.4846V267.429H58.3967L56.3041 270.813L56.9682 273.022Z" fill="black"/>
<path d="M42.1816 273.022H37.5828L30.8914 270.813L32.984 267.429L42.1816 271.937V273.022Z" fill="black"/>
<path d="M31.5558 273.022H28.0723V267.429H32.9843L30.8917 270.813L31.5558 273.022Z" fill="black"/>
<path d="M129.786 113.559L88.7847 112.538C84.5869 113.738 80.1385 111.835 78.0459 107.94L56.731 72.4625L70.5399 59.7298L89.6744 97.8001L128.583 109.485L129.786 113.559Z" fill="#9EDAF6"/>
<path d="M34.1534 108.198C26.5598 117.942 23.448 139.183 24.062 152.005L27.6333 225.936L62.7321 227.481L70.0219 149.657C71.0183 139.545 70.0219 131.455 68.985 121.227L68.0294 108.198H34.1534Z" fill="black"/>
<path d="M37.0447 133.313C37.0447 133.313 40.4392 135.55 41.7641 138.248C42.2956 139.333 42.5781 140.527 42.2273 141.773L41.1187 145.684C41.0467 145.943 40.6981 145.969 40.6254 145.735L39.3166 141.314C39.1814 140.86 38.7927 140.542 38.2906 140.501C37.1854 140.414 36.2802 139.779 35.8417 138.816L33.6282 135.746L37.0447 133.313Z" fill="#FFC59E"/>
<path d="M33.7167 135.892L8.42173 101.014C5.83883 97.4479 6.00677 92.5333 8.84233 89.1498L33.8624 56.2304L50.4392 64.8605L22.2636 96.626L37.0347 133.298L33.7167 135.892Z" fill="#9EDAF6"/>
<path d="M51.4807 37.9042C51.8942 36.8315 52.0446 35.7332 51.9819 34.6604C51.9193 33.5366 52.3203 32.4638 53.1223 31.672C54.1372 30.6759 54.9016 29.3732 55.2525 27.8152C55.9918 24.4947 54.4004 20.9827 51.4431 19.3991C47.3957 17.228 42.5212 19.1564 40.9047 23.3709C40.4912 24.4309 40.3408 25.5292 40.4035 26.6019C40.4661 27.7385 40.0526 28.8241 39.2506 29.6159C38.4988 30.3566 37.8848 31.2761 37.4713 32.3361C36.8823 33.8814 36.8197 35.4905 37.1831 36.9719C37.3836 37.7765 37.1705 38.6322 36.6568 39.2835C36.0804 40.0242 35.6543 40.9182 35.4538 41.9398C34.9651 44.4046 36.0553 47.0099 38.1479 48.3381C41.4811 50.4581 45.704 48.9128 47.0573 45.3625C47.2829 44.775 47.4082 44.162 47.4583 43.5618C47.521 42.7316 47.922 41.9654 48.5986 41.5184C49.8642 40.6755 50.8918 39.4495 51.4807 37.9042Z" fill="black"/>
<path d="M59.2998 36.129H52.27L47.17 53.9062C47.0823 54.1871 47.2076 54.4936 47.4582 54.6469L56.9816 60.5343C58.0217 61.1856 59.375 60.6109 59.6757 59.3977L60.8536 54.5703C60.8787 54.4426 60.8912 54.3021 60.8787 54.1744L59.2998 36.129Z" fill="#FFC59E"/>
<path d="M56.7186 45.554L51.8817 44.8643C49.7389 44.5578 48.2603 42.5528 48.561 40.3689L50.5409 25.9377L66.1668 28.1599L64.613 39.4877C64.0616 43.3829 60.5405 46.0903 56.7186 45.554Z" fill="#FFC59E"/>
<path d="M47.3706 35.7331C51.819 35.7331 55.453 32.0296 55.453 27.4959L55.4279 21.353H54.0997C50.3905 21.353 47.3706 24.4308 47.3706 28.2366V35.7331Z" fill="black"/>
<path d="M67.1566 29.1944H59.0993C56.4052 29.1944 54.3752 26.6913 54.889 23.9839L55.3902 21.353H59.4502C63.7107 21.353 67.1566 24.8651 67.1566 29.1944Z" fill="black"/>
<path d="M51.7185 34.7115C51.6057 35.5416 50.8538 36.1163 50.0519 36.0014C49.2499 35.8864 48.686 35.1202 48.7988 34.3028C48.9116 33.4727 49.6634 32.898 50.4654 33.013C51.2674 33.1279 51.8312 33.8942 51.7185 34.7115Z" fill="#FFC59E"/>
<path d="M130.011 112.819L171.012 111.797C175.636 111.231 179.658 111.095 181.751 107.199L192.039 56.0134L178.23 43.2808L170.11 97.0593L131.202 108.745L130.011 112.819Z" fill="black"/>
<path d="M122.004 108.26C122.004 108.26 125.851 106.97 128.745 107.621C129.898 107.876 131.001 108.4 131.728 109.46L134.008 112.793C134.159 113.01 133.971 113.317 133.745 113.215L129.547 111.478C129.109 111.299 128.62 111.414 128.282 111.772C127.53 112.589 126.465 112.921 125.45 112.653L121.703 112.474L122.004 108.26Z" fill="#FFC59E"/>
<path d="M134.008 114.862C134.008 114.862 130.162 116.152 127.267 115.501C126.114 115.245 125.011 114.722 124.285 113.662L122.004 110.328C121.854 110.111 122.042 109.805 122.267 109.907L126.465 111.644C126.904 111.823 127.392 111.708 127.731 111.35C128.482 110.533 129.548 110.201 130.563 110.469L134.309 110.648L134.008 114.862Z" fill="#FFC59E"/>
</g>
<defs>
<clipPath id="clip0">
<rect width="273" height="271" fill="white" transform="translate(0.277588)"/>
</clipPath>
</defs>
</svg>
