<svg width="32" height="32" viewBox="0 0 32 32" fill="none" xmlns="http://www.w3.org/2000/svg">
<path d="M20.8887 17.7782C20.3846 17.7786 19.8882 17.9016 19.4423 18.1367C18.9964 18.3718 18.6145 18.7118 18.3293 19.1275L13.99 17.1682C14.2982 16.4239 14.2994 15.588 13.9933 14.8428L18.3267 12.8735C18.7492 13.4847 19.3769 13.9241 20.0957 14.1122C20.8146 14.3003 21.577 14.2244 22.2447 13.8985C22.9125 13.5726 23.4413 13.0181 23.7352 12.3357C24.0292 11.6533 24.0688 10.8881 23.8469 10.1789C23.625 9.46982 23.1563 8.8637 22.5258 8.47054C21.8953 8.07737 21.1448 7.92321 20.4104 8.03602C19.6759 8.14882 19.0063 8.52111 18.5228 9.08537C18.0394 9.64962 17.7742 10.3685 17.7753 11.1115C17.7782 11.2874 17.796 11.4627 17.8287 11.6355L13.222 13.7288C12.7796 13.3143 12.2257 13.0381 11.6284 12.934C11.0311 12.83 10.4164 12.9026 9.85987 13.1431C9.30332 13.3836 8.82915 13.7815 8.49559 14.2877C8.16204 14.794 7.98364 15.3867 7.98231 15.993C7.98098 16.5993 8.15677 17.1927 8.48809 17.7005C8.81942 18.2082 9.29184 18.6081 9.84733 18.8511C10.4028 19.094 11.0172 19.1694 11.6149 19.068C12.2126 18.9666 12.7677 18.6927 13.212 18.2802L17.8307 20.3655C17.7986 20.5382 17.781 20.7132 17.778 20.8888C17.7779 21.5043 17.9602 22.1059 18.3021 22.6176C18.6439 23.1294 19.1298 23.5283 19.6984 23.7639C20.2669 23.9994 20.8926 24.0611 21.4962 23.9411C22.0998 23.8211 22.6542 23.5247 23.0894 23.0895C23.5245 22.6544 23.8209 22.0999 23.9409 21.4963C24.0609 20.8927 23.9993 20.2671 23.7637 19.6985C23.5281 19.13 23.1292 18.6441 22.6175 18.3022C22.1057 17.9604 21.5041 17.778 20.8887 17.7782ZM20.8887 9.3335C21.2403 9.33337 21.5842 9.43753 21.8766 9.63282C22.1691 9.82811 22.3971 10.1057 22.5318 10.4306C22.6665 10.7555 22.7018 11.113 22.6332 11.458C22.5647 11.8029 22.3954 12.1198 22.1468 12.3685C21.8982 12.6172 21.5814 12.7866 21.2364 12.8553C20.8915 12.9239 20.534 12.8888 20.2091 12.7542C19.8841 12.6197 19.6064 12.3918 19.411 12.0994C19.2156 11.807 19.1113 11.4632 19.1113 11.1115C19.1117 10.6402 19.299 10.1882 19.6322 9.85489C19.9655 9.52154 20.4173 9.33403 20.8887 9.3335ZM11.1113 17.7782C10.7596 17.7783 10.4158 17.6741 10.1233 17.4788C9.83087 17.2836 9.60287 17.0059 9.4682 16.681C9.33352 16.3562 9.29822 15.9986 9.36674 15.6537C9.43527 15.3088 9.60456 14.9919 9.85319 14.7432C10.1018 14.4944 10.4186 14.325 10.7635 14.2564C11.1085 14.1877 11.466 14.2229 11.7909 14.3574C12.1158 14.492 12.3936 14.7199 12.589 15.0123C12.7844 15.3047 12.8887 15.6485 12.8887 16.0002C12.8881 16.4714 12.7007 16.9233 12.3675 17.2566C12.0344 17.5899 11.5826 17.7775 11.1113 17.7782ZM20.8887 22.6668C20.537 22.6668 20.1932 22.5626 19.9009 22.3672C19.6085 22.1718 19.3806 21.8941 19.246 21.5692C19.1114 21.2444 19.0762 20.8869 19.1448 20.542C19.2134 20.1971 19.3828 19.8803 19.6314 19.6316C19.8801 19.3829 20.1969 19.2136 20.5418 19.145C20.8867 19.0764 21.2442 19.1116 21.5691 19.2462C21.894 19.3807 22.1716 19.6086 22.367 19.901C22.5624 20.1934 22.6667 20.5372 22.6667 20.8888C22.6663 21.3603 22.4789 21.8123 22.1455 22.1457C21.8121 22.479 21.3601 22.6665 20.8887 22.6668Z" fill="white"/>
</svg>
