<svg width="32" height="32" viewBox="0 0 32 32" fill="none" xmlns="http://www.w3.org/2000/svg">
<path d="M15.9946 24.3599C13.849 24.3599 11.7035 24.3599 9.55787 24.3599C9.03732 24.3599 8.51676 24.3646 7.99621 24.3576C7.04111 24.3389 6.17201 23.541 6.03848 22.5653C6.01584 22.3921 6.00226 22.2167 6.00226 22.0412C6 18.6882 6 15.3353 6 11.9823C6 11.6197 6.05432 11.2687 6.21275 10.9435C6.53413 10.2836 7.0479 9.88588 7.75178 9.75719C7.8921 9.73146 8.03695 9.72678 8.17953 9.72678C9.35191 9.72444 10.5266 9.72444 11.6989 9.72678C11.7872 9.72678 11.8347 9.69636 11.88 9.62382C12.1018 9.25881 12.3168 8.88679 12.559 8.53582C12.8034 8.17783 13.1542 8 13.5842 8.00234C15.1708 8.00234 16.7596 8.00468 18.3462 8C18.8373 8 19.2085 8.21994 19.4733 8.63409C19.6838 8.96166 19.8829 9.29625 20.0821 9.63084C20.1251 9.70338 20.1726 9.72912 20.2541 9.72678C21.465 9.72444 22.6758 9.7221 23.8867 9.72678C24.5928 9.72912 25.1609 10.0239 25.5886 10.6042C25.8716 10.9879 25.9983 11.4325 25.9983 11.9122C26.0006 15.3283 26.0006 18.7444 25.9983 22.1582C25.9983 23.2345 25.3352 24.0885 24.328 24.3155C24.1718 24.3506 24.0066 24.3599 23.8459 24.3599C21.9221 24.3623 19.9984 24.3599 18.0768 24.3599C17.382 24.3576 16.6895 24.3576 15.9946 24.3599C15.9946 24.3599 15.9946 24.3576 15.9946 24.3599ZM21.5781 17.041C21.5781 13.8612 19.0795 11.2734 16.0037 11.271C12.9437 11.2687 10.4338 13.8565 10.4179 17.0059C10.4021 20.1506 12.8464 22.7993 15.9833 22.818C19.0682 22.8344 21.5781 20.2325 21.5781 17.041ZM9.75251 11.8817C9.2908 11.8841 8.91057 12.2748 8.91736 12.7404C8.92189 13.2224 9.30212 13.5968 9.78193 13.5945C10.2142 13.5921 10.5877 13.199 10.5877 12.7404C10.5877 12.2678 10.2097 11.8771 9.75251 11.8817Z" fill="#DEF0FB"/>
<path d="M20.5301 17.0452C20.503 19.6073 18.5792 21.6242 16.1733 21.7155C13.6 21.8138 11.5065 19.7267 11.4748 17.1084C11.4408 14.427 13.514 12.4405 15.8542 12.3656C18.3529 12.2837 20.5098 14.3428 20.5301 17.0452Z" fill="#DEF0FB"/>
</svg>
