<svg width="32" height="32" viewBox="0 0 32 32" fill="none" xmlns="http://www.w3.org/2000/svg">
<path d="M20.9747 10.8815H21.2447C21.2447 8.18327 18.9549 6 16.125 6C13.2952 6 11.0054 8.18327 11.0054 10.8815C11.0054 13.5797 13.2952 15.7629 16.125 15.7629C18.9549 15.7629 21.2447 13.5797 21.2447 10.8815H20.9747Z" fill="#9CCEB8"/>
<path d="M24.0646 21.53C23.9773 21.3054 23.8551 21.0809 23.7155 20.8564C23.5323 20.5604 23.2967 20.2645 23.0262 19.9787C22.6335 19.5501 22.1536 19.1316 21.6126 18.754C21.4642 18.652 21.3159 18.5499 21.1588 18.4479C20.8359 18.2438 20.4956 18.0601 20.1379 17.8968C18.9511 17.3355 17.5899 16.9783 16.1239 16.9783C13.8901 16.9783 11.8831 17.8253 10.4171 18.9173C9.68412 19.4582 9.09075 20.0604 8.6719 20.6625C8.46248 20.9584 8.29668 21.2544 8.18325 21.5504C8.06981 21.8463 8 22.1321 8 22.4076C8 22.6832 8.06981 22.9587 8.19197 23.2037C8.4014 23.6425 8.77661 24.0201 9.25654 24.3569C9.9808 24.857 10.9756 25.2652 12.1449 25.5509C13.3229 25.8367 14.6754 26 16.1239 26C16.3072 26 16.4991 26 16.6824 25.9898C18.3665 25.9388 19.911 25.6734 21.1588 25.2448C21.377 25.1733 21.5864 25.0917 21.7871 25.01C21.8307 24.9896 21.8743 24.9692 21.918 24.9488C21.7871 24.908 21.6562 24.8774 21.5253 24.8366C21.6475 24.8774 21.7784 24.9182 21.918 24.9488C22.5899 24.6529 23.1396 24.3059 23.541 23.9078C23.7592 23.6935 23.925 23.4588 24.0471 23.2139C24.1693 22.9689 24.2391 22.6934 24.2391 22.4178C24.2391 22.1015 24.178 21.8157 24.0646 21.53Z" fill="#9CCEB8"/>
</svg>
