<svg width="32" height="32" viewBox="0 0 32 32" fill="none" xmlns="http://www.w3.org/2000/svg">
<g clip-path="url(#clip0)">
<path fill-rule="evenodd" clip-rule="evenodd" d="M9 10.6406C7.89543 10.6406 7 11.5361 7 12.6406V32.3586C7 33.4631 7.89543 34.3586 9 34.3586H42C43.1046 34.3586 44 33.4631 44 32.3586V12.6406C44 11.5361 43.1046 10.6406 42 10.6406H9ZM11.6304 11.5728C10.3683 11.5728 9.33486 12.5873 9.33486 13.8546C9.33486 15.1218 10.3683 16.1363 11.6304 16.1363C12.6305 16.1363 13.4869 15.4994 13.7995 14.6046H13.926V13.8546V13.1046H13.7995C13.4869 12.2097 12.6305 11.5728 11.6304 11.5728ZM10.8349 13.8546C10.8349 13.4284 11.1839 13.0728 11.6304 13.0728C12.0769 13.0728 12.426 13.4284 12.426 13.8546C12.426 14.2807 12.0769 14.6363 11.6304 14.6363C11.1839 14.6363 10.8349 14.2807 10.8349 13.8546ZM9.09682 16.2561C9.75236 15.8447 10.6418 15.5262 11.6304 15.5262C12.2793 15.5262 12.8862 15.6637 13.4079 15.8723L13.4128 15.8743L13.4128 15.8743C13.5635 15.9358 13.7149 16.0061 13.852 16.0782C13.929 16.1167 13.9954 16.1544 14.0458 16.1829L14.0504 16.1855L14.061 16.1915L14.0713 16.1978C14.3037 16.3395 14.5253 16.4995 14.7187 16.6805C14.8445 16.7959 14.9596 16.9188 15.0595 17.0502C15.1468 17.1623 15.2246 17.2892 15.2816 17.4164L15.2852 17.4244L15.2887 17.4326C15.2897 17.4351 15.2908 17.4377 15.292 17.4405C15.3278 17.5253 15.4291 17.7649 15.4004 18.0501C15.3918 18.2423 15.3399 18.4291 15.2436 18.6003C15.1334 18.8166 14.9711 18.9614 14.8961 19.0282L14.8946 19.0296L14.8854 19.0378L14.8759 19.0457C14.6451 19.2384 14.3539 19.3913 14.0508 19.5039L13.9244 19.5509H13.9232C13.8459 19.5783 13.7734 19.5989 13.7146 19.6149C13.1735 19.7746 12.5266 19.8651 11.8507 19.8816L11.8415 19.8819H11.8323H11.8319H11.8315H11.8311H11.8307H11.8303H11.8299H11.8295H11.8291H11.8287H11.8282H11.8278H11.8274H11.827H11.8266H11.8262H11.8258H11.8254H11.825H11.8246H11.8242H11.8237H11.8233H11.8229H11.8225H11.8221H11.8217H11.8213H11.8209H11.8205H11.8201H11.8196H11.8192H11.8188H11.8184H11.818H11.8176H11.8172H11.8168H11.8164H11.816H11.8156H11.8151H11.8147H11.8143H11.8139H11.8135H11.8131H11.8127H11.8123H11.8119H11.8115H11.811H11.8106H11.8102H11.8098H11.8094H11.809H11.8086H11.8082H11.8078H11.8074H11.807H11.8065H11.8061H11.8057H11.8053H11.8049H11.8045H11.8041H11.8037H11.8033H11.8029H11.8024H11.802H11.8016H11.8012H11.8008H11.8004H11.8H11.7996H11.7992H11.7988H11.7984H11.7979H11.7975H11.7971H11.7967H11.7963H11.7959H11.7955H11.7951H11.7947H11.7943H11.7938H11.7934H11.793H11.7926H11.7922H11.7918H11.7914H11.791H11.7906H11.7902H11.7898H11.7893H11.7889H11.7885H11.7881H11.7877H11.7873H11.7869H11.7865H11.7861H11.7857H11.7852H11.7848H11.7844H11.784H11.7836H11.7832H11.7828H11.7824H11.782H11.7816H11.7811H11.7807H11.7803H11.7799H11.7795H11.7791H11.7787H11.7783H11.7779H11.7775H11.7771H11.7766H11.7762H11.7758H11.7754H11.775H11.7746H11.7742H11.7738H11.7734H11.773H11.7725H11.7721H11.7717H11.7713H11.7709H11.7705H11.7701H11.7697H11.7693H11.7689H11.7685H11.768H11.7676H11.7672H11.7668H11.7664H11.766H11.7656H11.7652H11.7648H11.7644H11.7639H11.7635H11.7631H11.7627H11.7623H11.7619H11.7615H11.7611H11.7607H11.7603H11.7599H11.7594H11.759H11.7586H11.7582H11.7578H11.7574H11.757H11.7566H11.7562H11.7558H11.7553H11.7549H11.7545H11.7541H11.7537H11.7533H11.7529H11.7525H11.7521H11.7517H11.7513H11.7508H11.7504H11.75H11.7496H11.7492H11.7488H11.7484H11.748H11.7476H11.7472H11.7467H11.7463H11.7459H11.7455H11.7451H11.7447H11.7443H11.7439H11.7435H11.7431H11.7426H11.7422H11.7418H11.7414H11.741H11.7406H11.7402H11.7398H11.7394H11.739H11.7386H11.7381H11.7377H11.7373H11.7369H11.7365H11.7361H11.7357H11.7353H11.7349H11.7345H11.734H11.7336H11.7332H11.7328H11.7324H11.732H11.7316H11.7312H11.7308H11.7304H11.73H11.7295H11.7291H11.7287H11.7283H11.7279H11.7275H11.7271H11.7267H11.7263H11.7259H11.7254H11.725H11.7246H11.7242H11.7238H11.7234H11.723H11.7226H11.7222H11.7218H11.7214H11.7209H11.7205H11.7201H11.7197H11.7193H11.7189H11.7185H11.7181H11.7177H11.7173H11.7168H11.7164H11.716H11.7156H11.7152H11.7148H11.7144H11.714H11.7136H11.7132H11.7128H11.7123H11.7119H11.7115H11.7111H11.7107H11.7103H11.7099H11.7095H11.7091H11.7087H11.7082H11.7078H11.7074H11.707H11.7066H11.7062H11.7058H11.7054H11.705H11.7046H11.7041H11.7037H11.7033H11.7029H11.7025H11.7021H11.7017H11.7013H11.7009H11.7005H11.7001H11.6996H11.6992H11.6988H11.6984H11.698H11.6976H11.6972H11.6968H11.6964H11.696H11.6955H11.6951H11.6947H11.6943H11.6939H11.6935H11.6931H11.6927H11.6923H11.6919H11.6915H11.691H11.6906H11.6902H11.6898H11.6894H11.689H11.6886H11.6882H11.6878H11.6874H11.6869H11.6865H11.6861H11.6857H11.6853H11.6849H11.6845H11.6841H11.6837H11.6833H11.6829H11.6824H11.682H11.6816H11.6812H11.6808H11.6804H11.68H11.6796H11.6792H11.6788H11.6783H11.6779H11.6775H11.6771H11.6767H11.6763H11.6759H11.6755H11.6751H11.6747H11.6743H11.6738H11.6734H11.673H11.6726H11.6722H11.6718H11.6714H11.671H11.6706H11.6702H11.6697H11.6693H11.6689H11.6685H11.6681H11.6677H11.6673H11.6669H11.6665H11.6661H11.6656H11.6652H11.6648H11.6644H11.664H11.6636H11.6632H11.6628H11.6624H11.662H11.6616H11.6611H11.6607H11.6603H11.6599H11.6595H11.6591H11.6587H11.6583H11.6579H11.6575H11.657H11.6566H11.6562H11.6558H11.6554H11.655H11.6546H11.6542H11.6538H11.6534H11.653H11.6525H11.6521H11.6517H11.6513H11.6509H11.6505H11.6501H11.6497H11.6493H11.6489H11.6484H11.648H11.6476H11.6472H11.6468H11.6464H11.646H11.6456H11.6452H11.6448H11.6444H11.6439H11.6435H11.6431H11.6427H11.6423H11.6419H11.6415H11.6411H11.6407H11.6403H11.6398H11.6394H11.639H11.6386H11.6382H11.6378H11.6374H11.637H11.6366H11.6362H11.6358H11.6353H11.6349H11.6345H11.6341H11.6337H11.6333H11.6329H11.6325H11.6321H11.6317H11.6312H11.6308H11.6304H11.63H11.6296H11.6292H11.6288H11.6284H11.628H11.6276H11.6272H11.6267H11.6263H11.6259H11.6255H11.6251H11.6247H11.6243H11.6239H11.6235H11.6231H11.6226C11.0387 19.8819 10.4812 19.8324 9.97825 19.7275L9.97564 19.727L9.97564 19.727C9.5098 19.628 9.04906 19.4851 8.67686 19.2657C8.4321 19.1273 8.17401 18.9227 8.00741 18.6315C7.88966 18.432 7.83586 18.2082 7.83586 18.0004C7.83586 17.7801 7.89561 17.5726 7.98616 17.3931C8.05334 17.26 8.1445 17.1116 8.2632 16.9694C8.48211 16.6998 8.77431 16.4572 9.09682 16.2561ZM14.076 19.4883C14.0819 19.4853 14.081 19.4859 14.0754 19.4886L14.076 19.4883ZM11.6304 17.0262C10.9576 17.0262 10.3407 17.2462 9.8935 17.5271L9.89113 17.5286L9.89113 17.5286C9.67271 17.6646 9.51674 17.8045 9.42575 17.9173L9.42104 17.9231L9.4162 17.9289C9.41034 17.9358 9.40455 17.9431 9.39886 17.9505C9.40505 17.9542 9.41156 17.958 9.4184 17.9618L9.42686 17.9666L9.43519 17.9715C9.60503 18.0725 9.88605 18.1744 10.2859 18.2594C10.6681 18.339 11.1198 18.3819 11.6226 18.3819H11.6231H11.6235H11.6239H11.6243H11.6247H11.6251H11.6255H11.6259H11.6263H11.6267H11.6272H11.6276H11.628H11.6284H11.6288H11.6292H11.6296H11.63H11.6304H11.6308H11.6312H11.6317H11.6321H11.6325H11.6329H11.6333H11.6337H11.6341H11.6345H11.6349H11.6353H11.6358H11.6362H11.6366H11.637H11.6374H11.6378H11.6382H11.6386H11.639H11.6394H11.6398H11.6403H11.6407H11.6411H11.6415H11.6419H11.6423H11.6427H11.6431H11.6435H11.6439H11.6444H11.6448H11.6452H11.6456H11.646H11.6464H11.6468H11.6472H11.6476H11.648H11.6484H11.6489H11.6493H11.6497H11.6501H11.6505H11.6509H11.6513H11.6517H11.6521H11.6525H11.653H11.6534H11.6538H11.6542H11.6546H11.655H11.6554H11.6558H11.6562H11.6566H11.657H11.6575H11.6579H11.6583H11.6587H11.6591H11.6595H11.6599H11.6603H11.6607H11.6611H11.6616H11.662H11.6624H11.6628H11.6632H11.6636H11.664H11.6644H11.6648H11.6652H11.6656H11.6661H11.6665H11.6669H11.6673H11.6677H11.6681H11.6685H11.6689H11.6693H11.6697H11.6702H11.6706H11.671H11.6714H11.6718H11.6722H11.6726H11.673H11.6734H11.6738H11.6743H11.6747H11.6751H11.6755H11.6759H11.6763H11.6767H11.6771H11.6775H11.6779H11.6783H11.6788H11.6792H11.6796H11.68H11.6804H11.6808H11.6812H11.6816H11.682H11.6824H11.6829H11.6833H11.6837H11.6841H11.6845H11.6849H11.6853H11.6857H11.6861H11.6865H11.6869H11.6874H11.6878H11.6882H11.6886H11.689H11.6894H11.6898H11.6902H11.6906H11.691H11.6915H11.6919H11.6923H11.6927H11.6931H11.6935H11.6939H11.6943H11.6947H11.6951H11.6955H11.696H11.6964H11.6968H11.6972H11.6976H11.698H11.6984H11.6988H11.6992H11.6996H11.7001H11.7005H11.7009H11.7013H11.7017H11.7021H11.7025H11.7029H11.7033H11.7037H11.7041H11.7046H11.705H11.7054H11.7058H11.7062H11.7066H11.707H11.7074H11.7078H11.7082H11.7087H11.7091H11.7095H11.7099H11.7103H11.7107H11.7111H11.7115H11.7119H11.7123H11.7128H11.7132H11.7136H11.714H11.7144H11.7148H11.7152H11.7156H11.716H11.7164H11.7168H11.7173H11.7177H11.7181H11.7185H11.7189H11.7193H11.7197H11.7201H11.7205H11.7209H11.7214H11.7218H11.7222H11.7226H11.723H11.7234H11.7238H11.7242H11.7246H11.725H11.7254H11.7259H11.7263H11.7267H11.7271H11.7275H11.7279H11.7283H11.7287H11.7291H11.7295H11.73H11.7304H11.7308H11.7312H11.7316H11.732H11.7324H11.7328H11.7332H11.7336H11.734H11.7345H11.7349H11.7353H11.7357H11.7361H11.7365H11.7369H11.7373H11.7377H11.7381H11.7386H11.739H11.7394H11.7398H11.7402H11.7406H11.741H11.7414H11.7418H11.7422H11.7426H11.7431H11.7435H11.7439H11.7443H11.7447H11.7451H11.7455H11.7459H11.7463H11.7467H11.7472H11.7476H11.748H11.7484H11.7488H11.7492H11.7496H11.75H11.7504H11.7508H11.7513H11.7517H11.7521H11.7525H11.7529H11.7533H11.7537H11.7541H11.7545H11.7549H11.7553H11.7558H11.7562H11.7566H11.757H11.7574H11.7578H11.7582H11.7586H11.759H11.7594H11.7599H11.7603H11.7607H11.7611H11.7615H11.7619H11.7623H11.7627H11.7631H11.7635H11.7639H11.7644H11.7648H11.7652H11.7656H11.766H11.7664H11.7668H11.7672H11.7676H11.768H11.7685H11.7689H11.7693H11.7697H11.7701H11.7705H11.7709H11.7713H11.7717H11.7721H11.7725H11.773H11.7734H11.7738H11.7742H11.7746H11.775H11.7754H11.7758H11.7762H11.7766H11.7771H11.7775H11.7779H11.7783H11.7787H11.7791H11.7795H11.7799H11.7803H11.7807H11.7811H11.7816H11.782H11.7824H11.7828H11.7832H11.7836H11.784H11.7844H11.7848H11.7852H11.7857H11.7861H11.7865H11.7869H11.7873H11.7877H11.7881H11.7885H11.7889H11.7893H11.7898H11.7902H11.7906H11.791H11.7914H11.7918H11.7922H11.7926H11.793H11.7934H11.7938H11.7943H11.7947H11.7951H11.7955H11.7959H11.7963H11.7967H11.7971H11.7975H11.7979H11.7984H11.7988H11.7992H11.7996H11.8H11.8004H11.8008H11.8012H11.8016H11.802H11.8024H11.8029H11.8033H11.8037H11.8041H11.8045H11.8049H11.8053H11.8057H11.8061H11.8065H11.807H11.8074H11.8078H11.8082H11.8086H11.809H11.8094H11.8098H11.8102H11.8106H11.811H11.8115H11.8119H11.8123H11.8127H11.8131H11.8135H11.8139H11.8143H11.8147H11.8151H11.8156H11.816H11.8164H11.8168H11.8172H11.8176H11.818H11.8184H11.8188H11.8192H11.8196H11.8201H11.8205H11.8209H11.8213H11.8217H11.8221H11.8225H11.8229H11.823C12.3978 18.3671 12.9091 18.2894 13.2962 18.1744L13.3052 18.1717L13.3143 18.1692C13.3828 18.1507 13.4155 18.1399 13.4327 18.1332C13.4503 18.1249 13.4765 18.1133 13.505 18.1027C13.523 18.096 13.5462 18.088 13.5738 18.0804C13.6948 18.0323 13.7872 17.9828 13.8516 17.9404C13.8151 17.8947 13.7664 17.8423 13.7027 17.784L13.6956 17.7775L13.6956 17.7774C13.5968 17.6846 13.4656 17.5861 13.3003 17.4845C13.2503 17.4562 13.2152 17.4367 13.177 17.4177L13.1682 17.4134L13.1595 17.4088C13.0665 17.3597 12.9579 17.3089 12.8485 17.2641C12.4853 17.1192 12.0679 17.0262 11.6304 17.0262ZM22.2707 15.302H16.2904V13.802H22.2707V15.302ZM22.2707 16.7414H16.2904V15.2414H22.2707V16.7414Z" fill="#9CCEB8"/>
</g>
<path d="M11.542 22.7348H22.9998C24.6567 22.7348 25.9998 21.3916 25.9998 19.7348V13.5781" stroke="#9CCEB8" stroke-width="1.5"/>
<defs>
<clipPath id="clip0">
<rect width="18.7952" height="12.7031" fill="white" transform="translate(6 9)"/>
</clipPath>
</defs>
</svg>
