<svg width="32" height="32" viewBox="0 0 32 32" fill="none" xmlns="http://www.w3.org/2000/svg">
<path fill-rule="evenodd" clip-rule="evenodd" d="M8.3452 9C7.24063 9 6.3452 9.89543 6.3452 11V11.6025L5.99976 12.2682L6.3452 12.4475V21.3139C6.3452 22.4184 7.24063 23.3139 8.3452 23.3139H23.8641C24.9687 23.3139 25.8641 22.4184 25.8641 21.3139V13.0481L26.1909 12.89L25.8641 12.2149V11C25.8641 9.89543 24.9687 9 23.8641 9H8.3452ZM25.8641 12.2149L25.5373 11.5398L16.3874 15.9687L6.69065 10.9368L6.3452 11.6025V12.4475L16.0303 17.4733L16.3641 17.6465L16.7025 17.4826L25.8641 13.0481V12.2149Z" fill="#FBD9D7"/>
</svg>
