<svg width="18" height="18" viewBox="0 0 18 18" fill="none" xmlns="http://www.w3.org/2000/svg">
<path d="M0.219669 16.7198L4.69642 12.243C3.47645 10.751 2.87663 8.84712 3.02104 6.92522C3.16544 5.00332 4.04301 3.21045 5.47223 1.91744C6.90145 0.624433 8.77298 -0.0697807 10.6997 -0.0216069C12.6264 0.026567 14.4609 0.813443 15.8237 2.17626C17.1865 3.53908 17.9734 5.37357 18.0216 7.30028C18.0698 9.22699 17.3755 11.0985 16.0825 12.5277C14.7895 13.957 12.9966 14.8345 11.0747 14.9789C9.15285 15.1233 7.24897 14.5235 5.75692 13.3036L1.28017 17.7803C1.13872 17.9169 0.949266 17.9925 0.752619 17.9908C0.555971 17.9891 0.367861 17.9102 0.228806 17.7712C0.0897484 17.6321 0.0108719 17.444 0.0091629 17.2474C0.00745392 17.0507 0.0830498 16.8613 0.219669 16.7198ZM10.4999 13.5001C11.6866 13.5001 12.8466 13.1482 13.8333 12.4889C14.82 11.8296 15.5891 10.8925 16.0432 9.79615C16.4973 8.69979 16.6161 7.49339 16.3846 6.32951C16.1531 5.16562 15.5817 4.09652 14.7426 3.25741C13.9034 2.41829 12.8343 1.84685 11.6705 1.61534C10.5066 1.38383 9.30018 1.50265 8.20382 1.95677C7.10746 2.4109 6.17039 3.17993 5.5111 4.16663C4.85181 5.15332 4.49992 6.31336 4.49992 7.50005C4.50171 9.0908 5.13442 10.6159 6.25925 11.7407C7.38408 12.8655 8.90917 13.4983 10.4999 13.5001Z" fill="black"/>
</svg>
