<svg width="317" height="289" viewBox="0 0 317 289" fill="none" xmlns="http://www.w3.org/2000/svg">
<g clip-path="url(#clip0)">
<path d="M202.211 138.783H33.1277C29.0553 138.783 25.7561 135.483 25.7561 131.409V24.3746C25.7561 20.3005 29.0553 17 33.1277 17H202.211C206.283 17 209.582 20.3005 209.582 24.3746V131.422C209.582 135.483 206.283 138.783 202.211 138.783Z" fill="white"/>
<path d="M29.4418 137.713L81.8937 167.186L56.6086 131.344L28.3979 131.151" fill="white"/>
<path d="M121.677 139.235H70.9266L58.3871 73.4953C56.4153 63.1683 64.3282 53.5892 74.8444 53.5892H117.734C128.25 53.5892 136.163 63.1683 134.191 73.4953L121.677 139.235Z" fill="black"/>
<path d="M98.6347 37.1254H92.1652L87.3582 53.5892H103.803L98.6347 37.1254Z" fill="#FFC59E"/>
<path d="M99.8847 45.3637H94.5364C92.178 45.3637 90.2578 43.4427 90.2578 41.0833V25.4317H107.514V37.7184C107.527 41.9342 104.099 45.3637 99.8847 45.3637Z" fill="#FFC59E"/>
<path d="M109.718 20.7131L94.3561 22.7759C91.1213 23.2142 89.4846 24.9547 89.4846 27.6493V33.8248C89.4846 35.3719 90.7347 36.6225 92.2812 36.6225H95.1293V30.3438C95.1293 28.8612 96.3279 27.6493 97.8228 27.6493H107.488L109.718 20.7131Z" fill="#362348"/>
<path d="M95.9925 33.0383C95.9925 33.9279 95.2708 34.6628 94.3687 34.6628C93.4795 34.6628 92.7449 33.9408 92.7449 33.0383C92.7449 32.1488 93.4666 31.4268 94.3687 31.4268C95.2579 31.4268 95.9925 32.1488 95.9925 33.0383Z" fill="#FFC59E"/>
<path d="M98.0032 59.3779H93.1446C89.9485 59.3779 87.3582 56.7865 87.3582 53.5892H103.803C103.803 56.7865 101.212 59.3779 98.0032 59.3779Z" fill="#FFC59E"/>
<path d="M161.847 68.5316L161.706 63.2328C161.654 61.3762 162.376 59.5713 163.716 58.282L167.879 54.208C168.149 53.9501 168.601 54.1951 168.51 54.569L166.861 61.4149C166.693 62.124 166.938 62.8718 167.492 63.3488C168.742 64.4189 169.374 66.0304 169.193 67.6678L168.897 70.3237L161.847 68.5316Z" fill="#FFC59E"/>
<path d="M150.507 112.495C149.141 113.282 147.581 113.694 146.009 113.694L126.833 87.7802L132.671 62.2529L146.215 94.0976L162.041 67.9643L170.199 67.7967L150.507 112.495Z" fill="black"/>
<path d="M95.0519 66.4559L99.9104 58.282L90.0645 58.3594L95.0519 66.4559Z" fill="#F5A997"/>
<path d="M95.0519 66.4559L100.297 131.125L95.8509 135.792L91.3274 130.88L95.0519 66.4559Z" fill="#F5A997"/>
<path d="M103.081 51.9518L94.8584 58.2047L99.8201 64.6123L107.385 52.7253L103.081 51.9518Z" fill="white"/>
<path d="M86.5976 52.1073L94.91 58.1539L89.871 64.7806L82.2932 52.8937L86.5976 52.1073Z" fill="white"/>
<path d="M117.991 126.548L122.515 127.322C124.1 127.593 125.505 128.521 126.381 129.862L129.126 134.09C129.307 134.361 129.01 134.696 128.714 134.567L123.185 132.002C122.605 131.731 121.935 131.808 121.432 132.208C120.311 133.085 118.829 133.355 117.476 132.917L115.272 132.208L117.991 126.548Z" fill="#FFC59E"/>
<path d="M109.447 128.147L57.1499 119.006C55.7194 118.336 54.4951 117.304 53.5801 116.015L58.8382 62.8976L71.674 84.4411L69.844 103.496L112.837 122.139L111.187 125.427L109.447 128.147Z" fill="black"/>
<path d="M110.362 136.308L110.323 136.231L110.362 134.129L197.546 134.013V136.115V136.179L197.327 136.566C196.205 138.397 194.195 138.732 191.888 138.732L116.02 138.835C113.726 138.835 111.702 138.513 110.581 136.682L110.362 136.308Z" fill="#D1D1D1"/>
<path d="M131.858 134.026L143.109 91.1581C143.406 90.0235 144.565 89.1082 145.687 89.1082L206.863 89.0308C207.997 89.0308 208.668 89.9333 208.371 91.0807L197.12 133.949L131.858 134.026Z" fill="#D1D1D1"/>
<path d="M166.423 111.528C165.843 113.72 167.157 115.486 169.348 115.486C171.539 115.486 173.769 113.707 174.348 111.515C174.928 109.324 173.627 107.545 171.436 107.545C169.232 107.557 166.99 109.337 166.423 111.528Z" fill="#F4F4F4"/>
<path d="M248.168 189.676H298.918L311.458 123.936C313.43 113.609 305.517 104.03 295.001 104.03H252.098C241.582 104.03 233.669 113.609 235.641 123.936L248.168 189.676Z" fill="#D99AC2"/>
<path d="M271.21 87.5663H277.68L282.487 104.03H266.042L271.21 87.5663Z" fill="#FFC59E"/>
<path d="M271.842 109.819H276.7C279.896 109.819 282.487 107.228 282.487 104.03H266.042C266.042 107.228 268.633 109.819 271.842 109.819Z" fill="#FFC59E"/>
<path d="M268.775 84.24V69.3491H266.133C263.079 69.3491 260.591 71.8245 260.591 74.8929V76.0533C260.591 80.5657 264.264 84.24 268.775 84.24Z" fill="#362348"/>
<path d="M269.96 95.7919H275.308C277.667 95.7919 279.587 93.8709 279.587 91.5115V75.8728H262.331V88.1595C262.318 92.3753 265.746 95.7919 269.96 95.7919Z" fill="#FFC59E"/>
<path d="M277.744 88.7912H278.234C279.355 88.7912 280.257 87.8887 280.257 86.7671V76.7882H277.757V88.7912H277.744Z" fill="#362348"/>
<path d="M268.775 77.2007H280.245V72.2887C280.245 69.13 277.693 66.5773 274.535 66.5773H268.775C265.836 66.5773 263.465 68.9495 263.465 71.889C263.465 74.8285 265.836 77.2007 268.775 77.2007Z" fill="#362348"/>
<path d="M277.976 81.8163V68.0599H275.476V79.3151C275.476 80.6946 276.598 81.8163 277.976 81.8163Z" fill="#362348"/>
<path d="M260.875 180.857L256.351 181.631C254.766 181.901 253.361 182.83 252.485 184.17L249.74 188.399C249.559 188.67 249.856 189.005 250.152 188.876L255.681 186.311C256.261 186.04 256.931 186.117 257.434 186.517C258.555 187.394 260.037 187.664 261.39 187.226L263.594 186.517L260.875 180.857Z" fill="#FFC59E"/>
<path d="M260.398 178.588L312.695 169.447C314.125 168.777 315.35 167.745 316.265 166.456L311.007 113.339L298.171 134.882L300.001 153.937L257.008 172.58L258.658 175.868L260.398 178.588Z" fill="#D99AC2"/>
<path d="M200.755 178.588L253.052 169.447C254.482 168.777 255.707 167.745 256.622 166.456L251.364 113.339L238.528 134.882L240.358 153.937L197.365 172.58L199.015 175.868L200.755 178.588Z" fill="#D99AC2"/>
<path d="M298.39 189.431C298.39 189.431 295.013 205.327 289.008 209.827C278.659 217.575 243.412 210.987 243.412 210.987L240.976 283.211H234.636L224.738 201.421L249.134 209.582L248.863 210.02L210.652 208.537L206.825 283.198H200.484L195.922 196.032L249.688 189.547L298.39 189.431Z" fill="black"/>
<path d="M222.766 289H228.695L234.623 287.079V281.909L228.695 284.784L222.766 286.189V289Z" fill="#362348"/>
<path d="M236.479 289H240.963V281.909H234.623V287.079L236.479 289Z" fill="#362348"/>
<path d="M188.602 289H194.53L200.458 287.079V281.909L194.53 284.784L188.602 286.189V289Z" fill="#362348"/>
<path d="M202.301 289H206.799V281.909H200.458V287.079L202.301 289Z" fill="#362348"/>
<path d="M293.596 213.488V228.405H247.652V213.488H293.596Z" fill="#362348"/>
<path d="M288.054 214.803H292.848V287.002H288.054V214.803Z" fill="#362348"/>
<path d="M247.549 214.803H252.356V287.002H247.549V214.803Z" fill="#362348"/>
<path d="M268.839 191.133L268.877 191.068L268.839 189.276L194.452 189.186V190.978V191.042L194.646 191.377C195.599 192.937 197.313 193.221 199.285 193.221L264.019 193.311C265.978 193.311 267.705 193.028 268.658 191.481L268.839 191.133Z" fill="#D1D1D1"/>
<path d="M250.5 189.186L240.899 152.609C240.641 151.643 239.662 150.856 238.695 150.856L186.501 150.792C185.534 150.792 184.967 151.565 185.212 152.545L194.813 189.121L250.5 189.186Z" fill="#D1D1D1"/>
<path d="M221.013 169.989C221.503 171.858 220.382 173.367 218.513 173.367C216.645 173.367 214.737 171.845 214.248 169.976C213.758 168.106 214.866 166.585 216.735 166.598C218.616 166.598 220.524 168.119 221.013 169.989Z" fill="#F4F4F4"/>
<path d="M275.566 82.7703C275.566 83.6599 276.288 84.3948 277.19 84.3948C278.079 84.3948 278.814 83.6728 278.814 82.7703C278.814 81.8807 278.092 81.1588 277.19 81.1588C276.288 81.1459 275.566 81.8679 275.566 82.7703Z" fill="#F5A068"/>
</g>
<defs>
<clipPath id="clip0">
<rect width="316" height="289" fill="white" transform="translate(0.277588)"/>
</clipPath>
</defs>
</svg>
