<svg width="32" height="32" viewBox="0 0 32 32" fill="none" xmlns="http://www.w3.org/2000/svg">
<path d="M14.889 25.9996H7.53466C7.16595 25.9996 6.87695 25.7068 6.87695 25.3554V18.611C6.87695 18.2498 7.17591 17.9668 7.53466 17.9668H14.889C15.2577 17.9668 15.5467 18.2596 15.5467 18.611V25.3554C15.5467 25.7165 15.2478 25.9996 14.889 25.9996Z" fill="#9CCEB8"/>
<path d="M24.4857 25.9996H17.1313C16.7626 25.9996 16.4736 25.7068 16.4736 25.3554V18.611C16.4736 18.2498 16.7726 17.9668 17.1313 17.9668H24.4857C24.8544 17.9668 25.1434 18.2596 25.1434 18.611V25.3554C25.1534 25.7165 24.8544 25.9996 24.4857 25.9996Z" fill="#9CCEB8"/>
<path d="M14.889 17.1575H6.65771C6.28899 17.1575 6 16.8647 6 16.5133V12.8532C6 12.492 6.29896 12.209 6.65771 12.209H14.889C15.2577 12.209 15.5467 12.5018 15.5467 12.8532V16.5133C15.5467 16.8744 15.2477 17.1575 14.889 17.1575Z" fill="#9CCEB8"/>
<path d="M25.3422 17.1575H17.071C16.7023 17.1575 16.4133 16.8647 16.4133 16.5133V12.8532C16.4133 12.492 16.7123 12.209 17.071 12.209H25.3422C25.7109 12.209 25.9999 12.5018 25.9999 12.8532V16.5133C25.9999 16.8744 25.7009 17.1575 25.3422 17.1575Z" fill="#9CCEB8"/>
<path d="M10.7529 8.81198C10.7529 8.81198 11.6398 11.9451 14.5995 11.6034C17.5692 11.2618 20.9872 8.98767 19.7316 7.88475C18.3974 6.71225 16.3266 10.9179 15.9996 11.5683M15.7432 11.5683C15.7432 11.5683 14.739 4.86879 12.2975 6.16692C9.85606 7.46505 14.4623 11.4616 16.2561 11.813C17.9402 12.1448 18.775 12.2964 20.6883 10.1784M15.7432 11.5683C15.7432 11.5683 15.97 11.6272 15.9996 11.5683M15.7432 11.5683L15.9996 11.5683" stroke="#9CCEB8" stroke-miterlimit="10"/>
</svg>
