<svg width="18" height="18" viewBox="0 0 18 18" fill="none" xmlns="http://www.w3.org/2000/svg">
<path d="M9 9C9.79112 9 10.5645 8.76541 11.2223 8.32588C11.8801 7.88635 12.3928 7.26164 12.6955 6.53074C12.9983 5.79983 13.0775 4.99556 12.9231 4.21964C12.7688 3.44372 12.3878 2.73098 11.8284 2.17157C11.269 1.61216 10.5563 1.2312 9.78036 1.07686C9.00444 0.92252 8.20017 1.00173 7.46927 1.30448C6.73836 1.60723 6.11365 2.11992 5.67412 2.77772C5.2346 3.43552 5 4.20888 5 5C5.00106 6.06054 5.42283 7.07734 6.17274 7.82726C6.92266 8.57718 7.93946 8.99894 9 9ZM9 2.33334C9.52742 2.33334 10.043 2.48973 10.4815 2.78275C10.9201 3.07577 11.2618 3.49224 11.4637 3.97951C11.6655 4.46678 11.7183 5.00296 11.6154 5.52024C11.5125 6.03753 11.2586 6.51268 10.8856 6.88562C10.5127 7.25856 10.0375 7.51254 9.52024 7.61543C9.00296 7.71832 8.46678 7.66551 7.97951 7.46368C7.49224 7.26185 7.07576 6.92005 6.78275 6.48152C6.48973 6.04299 6.33333 5.52742 6.33333 5C6.33333 4.29276 6.61428 3.61448 7.11438 3.11438C7.61448 2.61429 8.29276 2.33334 9 2.33334Z" fill="black"/>
<path d="M9 10.3334C7.40924 10.3351 5.88414 10.9678 4.75931 12.0927C3.63447 13.2175 3.00176 14.7426 3 16.3334C3 16.5102 3.07024 16.6798 3.19526 16.8048C3.32029 16.9298 3.48986 17 3.66667 17C3.84348 17 4.01305 16.9298 4.13807 16.8048C4.2631 16.6798 4.33333 16.5102 4.33333 16.3334C4.33333 15.0957 4.825 13.9087 5.70017 13.0335C6.57534 12.1584 7.76232 11.6667 9 11.6667C10.2377 11.6667 11.4247 12.1584 12.2998 13.0335C13.175 13.9087 13.6667 15.0957 13.6667 16.3334C13.6667 16.5102 13.7369 16.6798 13.8619 16.8048C13.987 16.9298 14.1565 17 14.3333 17C14.5101 17 14.6797 16.9298 14.8047 16.8048C14.9298 16.6798 15 16.5102 15 16.3334C14.9982 14.7426 14.3655 13.2175 13.2407 12.0927C12.1159 10.9678 10.5908 10.3351 9 10.3334Z" fill="black"/>
</svg>
