<svg width="317" height="261" viewBox="0 0 317 261" fill="none" xmlns="http://www.w3.org/2000/svg">
<g clip-path="url(#clip0)">
<path d="M264.795 48.8949H128.098V146.84H264.795V48.8949Z" fill="#362348"/>
<path d="M154.727 123.689L154.727 260.813L156.502 260.813L156.502 123.689L154.727 123.689Z" fill="black"/>
<path d="M176.03 259.032H135.199V260.813H176.03V259.032Z" fill="black"/>
<path d="M259.469 259.032H218.637V260.813H259.469V259.032Z" fill="black"/>
<path d="M238.165 123.689L238.165 260.813L239.941 260.813L239.941 123.689L238.165 123.689Z" fill="black"/>
<path d="M129.873 145.059V50.6758H263.019V145.059H129.873Z" fill="white"/>
<path d="M131.648 134.374L144.066 107.216L151.629 129.245L169.448 63.1415L184.567 127.71L192.122 101.572L206.164 128.738L220.743 86.1999L241.263 128.224L250.98 112.852L261.244 132.839" stroke="#FF989B" stroke-miterlimit="10"/>
<path d="M39.7789 111.721L34.6065 185.616L19.5972 254.865H24.9231L47.0179 186.48C47.2069 185.9 47.3368 185.309 47.3958 184.718L53.1232 131.623L59.8072 133.255L65.6645 185.616L52.4737 254.865H57.7996L77.9342 187.035C78.2176 186.101 78.3357 185.12 78.2884 184.15L75.4424 119.656L39.7789 111.721Z" fill="black"/>
<path d="M34.8782 260.813H29.8947L24.9231 259.205V254.865L29.8947 257.277L34.8782 258.448V260.813Z" fill="black"/>
<path d="M23.3761 260.813H19.5972V254.865H24.9231V259.205L23.3761 260.813Z" fill="black"/>
<path d="M67.7431 260.813H62.7714L57.7998 259.205V254.865L62.7714 257.277L67.7431 258.448V260.813Z" fill="black"/>
<path d="M56.2528 260.813H52.4739V254.865H57.7998V259.205L56.2528 260.813Z" fill="black"/>
<path d="M4.06821 34.6564L1.42296 31.2389C0.490045 30.0327 0.112153 28.5073 0.360145 27.0055L1.13955 22.3109C1.18678 22.0034 1.6001 21.9561 1.71819 22.24L3.9265 27.5495C4.15087 28.1052 4.68228 28.4718 5.27273 28.5191C6.60716 28.6255 7.79988 29.3824 8.473 30.5412L9.54763 32.4332L4.06821 34.6564Z" fill="#FFC59E"/>
<path d="M39.7791 111.721L75.5489 119.774L95.2346 67.4239C98.2932 59.2764 93.4633 50.3011 84.9843 48.3972L61.7558 43.1705C53.2769 41.2666 45.0695 47.2975 44.361 55.9771L39.7791 111.721Z" fill="#95D1BB"/>
<path d="M84.1104 31.7947L86.8501 19.5911L89.0111 20.076C91.5147 20.6436 93.0853 23.1269 92.5303 25.6338L92.3177 26.5798C91.4911 30.2929 87.8184 32.6225 84.1104 31.7947Z" fill="#FF989B"/>
<path d="M81.6187 32.2795L76.5762 31.1443L69.4199 45.4409L82.2564 48.3263L81.6187 32.2795Z" fill="#FFC59E"/>
<path d="M80.9692 40.7463L76.8478 39.8239C75.0292 39.4101 73.8837 37.6126 74.297 35.7916L77.0013 23.7417L90.2865 26.7335L88.1609 36.1936C87.4287 39.4337 84.2049 41.4676 80.9692 40.7463Z" fill="#FFC59E"/>
<path d="M75.927 33.8759L75.5255 33.7813C74.6162 33.5803 74.0375 32.6697 74.2383 31.7592L76.0687 23.5762L78.1235 24.0374L75.927 33.8759Z" fill="#FF989B"/>
<path d="M85.4096 26.024L76.0095 23.9073L76.9188 19.8867C77.4975 17.297 80.06 15.677 82.6462 16.2564L87.3699 17.3207C89.7671 17.8646 91.2787 20.2533 90.7355 22.6538C90.2041 25.0543 87.8186 26.5679 85.4096 26.024Z" fill="#FF989B"/>
<path d="M77.0249 28.1171L79.5521 16.8358L81.5951 17.297L79.5284 26.5207C79.2805 27.6559 78.1468 28.3654 77.0249 28.1171Z" fill="#FF989B"/>
<path d="M75.8678 28.3299C75.6552 29.2759 76.2456 30.1983 77.1904 30.4111C78.1351 30.624 79.068 30.0327 79.2688 29.0867C79.4813 28.1525 78.8909 27.2183 77.9462 27.0055C77.0132 26.7926 76.0803 27.3839 75.8678 28.3299Z" fill="#FFC59E"/>
<path d="M82.2564 48.3263L78.7964 56.4738L69.4199 45.4409L82.2564 48.3263Z" fill="#FFC59E"/>
<path d="M29.1508 76.825L60.7638 55.3859L50.0411 45.6774L29.1744 63.9L8.96905 30.4585L3.76123 34.7037L23.695 75.3705C24.6988 77.4162 27.2732 78.1021 29.1508 76.825Z" fill="#95D1BB"/>
<path d="M152.237 120.401L155.969 122.588C157.28 123.357 158.85 123.534 160.303 123.097L164.849 121.701C165.145 121.607 165.133 121.193 164.838 121.11L159.299 119.608C158.721 119.455 158.284 118.982 158.154 118.402C157.882 117.09 156.973 116.002 155.733 115.493L153.713 114.665L152.237 120.401Z" fill="#FFC59E"/>
<path d="M107.197 101.019L83.1541 72.355L92.7785 54.8301L119.987 99.3164L155.745 114.997L152.226 120.732C152.237 120.72 106.182 103.053 107.197 101.019Z" fill="#95D1BB"/>
</g>
<defs>
<clipPath id="clip0">
<rect width="316" height="260" fill="white" transform="translate(0.277588 0.812744)"/>
</clipPath>
</defs>
</svg>
