<svg width="32" height="32" viewBox="0 0 32 32" fill="none" xmlns="http://www.w3.org/2000/svg">
<path d="M14.4305 25.9998C13.9453 25.8576 13.4426 25.751 12.9663 25.5643C12.2254 25.2798 11.8549 24.7554 11.8637 23.9021C11.8902 20.3643 11.8902 16.8265 11.8637 13.2887C11.8549 12.5421 12.1548 12.0976 12.8163 11.8221C14.6598 11.031 16.5033 10.2221 18.3379 9.42208C18.8848 9.18208 19.4405 8.94208 19.9874 8.70208C20.4813 8.48875 20.79 8.66652 20.8253 9.20875C20.8518 9.58208 20.8341 9.9643 20.8341 10.3554C20.7371 10.3554 20.6842 10.3732 20.6577 10.3554C20.0403 9.91986 19.4846 10.1332 18.8672 10.4087C17.0854 11.2265 15.2684 11.991 13.469 12.7732C13.3367 12.8354 13.2044 12.8887 13.0016 12.9865C14.1129 13.5376 15.1626 13.6799 16.2651 13.2087C18.5937 12.1954 20.9135 11.1821 23.2333 10.1687C23.8684 9.89319 24.0624 10.0176 24.0624 10.7021C24.0624 14.4621 24.0536 18.2221 24.0624 21.9821C24.0624 22.2754 23.9742 22.4354 23.7008 22.551C21.2399 23.6176 18.779 24.6932 16.3181 25.751C16.0534 25.8665 15.7624 25.9198 15.4801 25.9998C15.1361 25.9998 14.7833 25.9998 14.4305 25.9998Z" fill="#FF989B"/>
<path d="M15.5774 6C15.8508 6.15111 15.9567 6.38222 15.939 6.69333C15.9214 7.04 15.9302 7.39555 15.9302 7.74222C15.8685 7.76 15.8244 7.77778 15.8067 7.76889C15.1805 7.35111 14.6071 7.51111 13.9721 7.80444C12.1374 8.65778 10.2675 9.44 8.41516 10.2489C8.33577 10.2844 8.25639 10.3289 8.11526 10.4C9.18254 10.9244 10.2145 11.1022 11.2818 10.64C13.584 9.64444 15.8773 8.64 18.1794 7.63555C18.3382 7.56444 18.5146 7.43111 18.6646 7.44889C18.8498 7.47555 19.0174 7.63555 19.185 7.74222C19.0968 7.85778 19.0262 8.03555 18.9027 8.08889C16.8034 9.02222 14.6953 9.96444 12.5784 10.8533C11.4053 11.3511 10.8849 12.1511 10.9025 13.4578C10.9466 16.5511 10.9202 19.6444 10.9202 22.7378C10.9202 22.9155 10.9202 23.0933 10.9202 23.3244C9.61474 23.5378 8.41516 23.3867 7.39198 22.5244C7.16265 22.3378 7.03034 21.9022 7.03034 21.5822C7.00388 18.1689 7.0127 14.7555 7.0127 11.3333C7.0127 11.0667 7.02152 10.8 7.00388 10.5333C6.95978 9.89333 7.29496 9.52 7.84183 9.28C10.2234 8.24889 12.5961 7.2 14.9776 6.16C15.0658 6.12444 15.1452 6.05333 15.2246 6C15.3481 6 15.4627 6 15.5774 6Z" fill="#FF989B"/>
</svg>
