<svg width="32" height="32" viewBox="0 0 32 32" fill="none" xmlns="http://www.w3.org/2000/svg">
<path d="M12.9031 11.2852C12.9031 10.025 11.8673 9.00781 10.5841 9.00781C9.30096 9.00781 8.26514 10.025 8.26514 11.2852C8.26514 12.5453 9.30096 13.5625 10.5841 13.5625C11.8673 13.5625 12.9031 12.5377 12.9031 11.2852Z" fill="white"/>
<path d="M18.4427 15.1416C18.4427 13.8815 17.4069 12.8643 16.1237 12.8643C14.8405 12.8643 13.8047 13.8815 13.8047 15.1416C13.8047 16.4018 14.8405 17.419 16.1237 17.419C17.4069 17.419 18.4427 16.3942 18.4427 15.1416Z" fill="white"/>
<path d="M19.4983 22.0891C19.8771 21.9525 20.1863 21.7855 20.4105 21.5957C20.5342 21.497 20.6269 21.3832 20.6965 21.2693C20.7661 21.1554 20.8047 21.0264 20.8047 20.8973C20.8047 20.7683 20.7661 20.6316 20.7042 20.495C20.6578 20.3887 20.5883 20.2824 20.511 20.1762C20.4105 20.0395 20.2791 19.8953 20.1245 19.7586C19.908 19.5613 19.6375 19.3639 19.336 19.1817C19.251 19.1362 19.1659 19.083 19.0809 19.0375C18.9031 18.9464 18.7099 18.8553 18.5089 18.7794C17.8441 18.5137 17.0788 18.3467 16.2594 18.3467C15.0072 18.3467 13.8863 18.749 13.0669 19.2576C12.6573 19.5157 12.3249 19.7966 12.093 20.0775C11.977 20.2217 11.8843 20.3583 11.8224 20.495C11.7606 20.6316 11.7219 20.7683 11.7219 20.8973C11.7219 21.0264 11.7606 21.1554 11.8301 21.2693C11.9461 21.4743 12.1548 21.6489 12.4254 21.8083C12.8273 22.0436 13.3839 22.2334 14.0487 22.37C14.7057 22.5067 15.4633 22.5826 16.2749 22.5826C16.3831 22.5826 16.4836 22.5826 16.5841 22.575C17.5272 22.5522 18.3929 22.4232 19.0886 22.2258C19.2123 22.1878 19.3283 22.1499 19.4365 22.1119C19.4442 22.1119 19.4751 22.1043 19.4983 22.0891Z" fill="white"/>
<path d="M24.2152 11.2774C24.2152 10.0172 23.1793 9 21.8962 9C20.613 9 19.5771 10.0172 19.5771 11.2774C19.5771 12.5375 20.613 13.5547 21.8962 13.5547C23.1793 13.5471 24.2152 12.5299 24.2152 11.2774Z" fill="white"/>
<path fill-rule="evenodd" clip-rule="evenodd" d="M19.1189 14.5046C19.1529 14.6835 19.1708 14.869 19.1708 15.0592C19.1708 16.205 18.5218 17.1804 17.6051 17.5658C17.7668 17.6548 17.951 17.737 18.1554 17.8148C18.1788 17.8225 18.2021 17.8301 18.2332 17.8454C18.342 17.8835 18.4586 17.9217 18.583 17.9599C19.2827 18.1584 20.1535 18.2882 21.1098 18.3111C21.1603 18.3111 21.2128 18.313 21.2653 18.3149C21.3178 18.3168 21.3702 18.3187 21.4208 18.3187C22.2371 18.3187 22.999 18.2424 23.6598 18.105C24.3207 17.9675 24.8805 17.7767 25.2925 17.54C25.5646 17.3796 25.7668 17.204 25.8912 16.9979C25.9611 16.8834 26 16.7536 26 16.6161C26 16.4863 25.9611 16.3489 25.8989 16.2115C25.8367 16.0741 25.7434 15.929 25.619 15.7916C25.3858 15.5091 25.0515 15.2266 24.6394 14.967C23.8153 14.4554 22.6802 14.0508 21.4285 14.0508C20.6044 14.0508 19.8347 14.2264 19.1661 14.486C19.1503 14.4918 19.1346 14.4981 19.1189 14.5046Z" fill="white"/>
<path fill-rule="evenodd" clip-rule="evenodd" d="M13.1133 14.4487C13.0781 14.6336 13.0596 14.8253 13.0596 15.0219C13.0596 16.2064 13.7305 17.2147 14.6781 17.6131C14.511 17.7051 14.3205 17.7901 14.1093 17.8705C14.0851 17.8784 14.061 17.8863 14.0289 17.9021C13.9164 17.9416 13.7958 17.981 13.6672 18.0205C12.9439 18.2257 12.0438 18.3599 11.0552 18.3836C11.003 18.3836 10.9487 18.3855 10.8945 18.3875C10.8402 18.3895 10.786 18.3915 10.7337 18.3915C9.88987 18.3915 9.10225 18.3125 8.41911 18.1705C7.73598 18.0284 7.15732 17.8311 6.73136 17.5864C6.45007 17.4207 6.24111 17.2391 6.11252 17.026C6.04018 16.9076 6 16.7735 6 16.6314C6 16.4972 6.04018 16.3552 6.10448 16.2131C6.16878 16.071 6.26522 15.9211 6.39381 15.779C6.63492 15.487 6.9805 15.195 7.40646 14.9266C8.25838 14.3978 9.43177 13.9795 10.7257 13.9795C11.5776 13.9795 12.3733 14.161 13.0645 14.4294C13.0808 14.4354 13.0971 14.4419 13.1133 14.4487Z" fill="white"/>
</svg>
